<svg width="20" height="20" viewBox="0 0 20 20" fill="none" xmlns="http://www.w3.org/2000/svg">
<path d="M10 1.66667C5.405 1.66667 1.66667 5.405 1.66667 10C1.66667 14.595 5.405 18.3333 10 18.3333C14.595 18.3333 18.3333 14.595 18.3333 10C18.3333 5.405 14.595 1.66667 10 1.66667ZM10 16.6667C6.32417 16.6667 3.33333 13.6758 3.33333 10C3.33333 6.32417 6.32417 3.33333 10 3.33333C13.6758 3.33333 16.6667 6.32417 16.6667 10C16.6667 13.6758 13.6758 16.6667 10 16.6667Z" fill="#F05323"/>
<path d="M9.16667 9.16667H10.8333V14.1667H9.16667V9.16667ZM9.16667 5.83333H10.8333V7.5H9.16667V5.83333Z" fill="#F05323"/>
</svg>
